<?xml version="1.0" standalone="no"?>
<!DOCTYPE svg PUBLIC "-//W3C//DTD SVG 20010904//EN"
 "http://www.w3.org/TR/2001/REC-SVG-20010904/DTD/svg10.dtd">
<svg version="1.0" xmlns="http://www.w3.org/2000/svg"
 width="1280.000000pt" height="829.000000pt" viewBox="0 0 1280.000000 829.000000"
 preserveAspectRatio="xMidYMid meet">
<metadata>
Created by potrace 1.15, written by Peter Selinger 2001-2017
</metadata>
<g transform="translate(0.000000,829.000000) scale(0.100000,-0.100000)"
fill="#000000" stroke="none">
<path d="M6521 8273 c-73 -37 -167 -155 -241 -303 -26 -52 -116 -243 -200
-425 -243 -527 -348 -725 -494 -929 -110 -154 -213 -272 -343 -393 -65 -61
-128 -127 -138 -147 -18 -33 -18 -37 -2 -71 10 -21 30 -42 51 -52 49 -23 81
-7 161 80 118 126 200 257 395 622 172 324 452 831 517 939 111 182 217 328
287 393 l70 64 18 -23 c29 -38 74 -152 144 -368 79 -245 84 -258 124 -303 70
-81 183 -107 308 -72 l59 17 44 -27 c139 -87 365 -300 476 -447 127 -169 300
-477 347 -620 14 -42 26 -81 26 -86 0 -5 -20 -15 -45 -21 -60 -15 -112 -62
-126 -114 -14 -54 -5 -118 31 -220 16 -45 28 -83 26 -84 -1 -2 -29 7 -62 18
-32 12 -103 26 -158 32 -168 18 -253 -11 -375 -127 l-63 -61 -242 0 -242 0
-38 -29 c-54 -41 -88 -92 -136 -206 -58 -137 -103 -208 -185 -291 -86 -87
-132 -110 -240 -117 l-82 -5 -41 43 c-48 49 -75 100 -137 265 -89 236 -193
344 -364 381 -87 18 -137 18 -308 -3 l-142 -17 -42 47 c-55 63 -102 86 -199
95 -94 9 -135 -5 -188 -65 l-32 -37 27 -28 28 -29 -28 -52 c-63 -119 -243
-349 -449 -572 -250 -271 -934 -959 -1248 -1254 -184 -174 -423 -399 -530
-501 -107 -102 -276 -259 -375 -350 -541 -498 -698 -620 -1146 -893 -105 -64
-133 -87 -163 -130 -68 -99 -68 -167 -1 -225 51 -45 97 -57 220 -57 105 0 117
2 270 52 483 156 962 253 1252 253 l81 0 -85 -157 c-141 -260 -175 -360 -153
-458 22 -98 66 -153 160 -202 87 -44 153 -40 462 35 284 69 382 85 603 102 83
6 263 23 400 37 270 28 634 37 668 17 16 -9 14 -15 -24 -75 -146 -223 -185
-387 -116 -487 71 -101 175 -111 402 -38 181 58 240 72 353 86 64 7 98 7 112
0 10 -5 39 -36 63 -68 96 -124 237 -235 398 -312 83 -39 218 -80 268 -80 22 0
19 -4 -24 -28 -27 -16 -99 -61 -158 -100 -60 -40 -115 -72 -123 -72 -8 0 -14
-4 -14 -9 0 -5 20 -3 45 5 25 7 103 20 173 28 70 8 195 31 277 50 343 79 466
98 781 121 285 20 388 42 468 99 79 56 116 122 116 207 0 19 -14 82 -31 139
-48 161 -37 195 91 270 105 62 175 84 610 191 517 126 952 193 1340 206 220 7
337 -2 620 -48 143 -23 187 -34 195 -47 6 -9 39 -47 75 -83 53 -54 75 -70 119
-83 75 -22 195 -21 246 3 89 41 139 133 139 251 -1 86 -24 147 -77 198 -29 29
-41 32 -130 42 -54 6 -108 8 -120 4 -17 -5 -19 -3 -11 5 6 7 28 13 48 14 20 1
36 4 36 7 -1 3 -30 23 -67 45 -156 94 -523 516 -796 914 -159 233 -642 1065
-917 1581 -223 418 -334 618 -572 1030 -207 360 -267 478 -291 580 -25 104
-25 102 10 114 78 27 153 111 153 171 0 62 -24 103 -137 235 -63 74 -206 258
-316 409 -111 151 -262 352 -336 445 -73 94 -160 210 -192 257 -100 149 -182
202 -279 180 -70 -16 -107 -13 -129 10 -33 35 -118 219 -146 314 -60 204 -95
311 -110 331 -44 64 -171 100 -234 67z"/>
<path d="M1195 6434 c-114 -28 -307 -119 -500 -234 -66 -40 -174 -101 -240
-137 -201 -109 -255 -143 -255 -160 0 -42 91 -133 132 -133 9 0 28 19 43 42
103 155 444 385 734 495 36 14 99 31 140 38 94 17 137 6 310 -74 223 -104 230
-106 566 -107 l290 0 170 -36 c254 -54 358 -78 375 -85 8 -3 -11 -11 -45 -18
-33 -6 -127 -30 -208 -53 -280 -78 -496 -82 -957 -16 -161 23 -352 15 -474
-21 -103 -30 -356 -130 -466 -183 -65 -32 -84 -37 -145 -36 -38 0 -110 8 -160
17 -253 46 -295 50 -365 32 -36 -9 -69 -20 -75 -25 -5 -4 -23 -11 -40 -15
l-30 -8 33 -9 c17 -5 32 -14 32 -21 0 -24 122 -95 185 -107 72 -14 224 -66
245 -85 27 -24 133 -62 264 -95 106 -27 141 -32 195 -27 69 6 197 44 316 94
137 58 190 67 353 60 81 -4 266 -16 412 -28 146 -12 333 -22 415 -22 175 -2
226 9 380 80 55 25 118 52 140 60 76 27 192 34 390 22 249 -14 457 4 675 58
68 16 341 129 350 144 3 4 24 11 47 15 36 6 42 10 46 37 15 108 -54 143 -177
87 -42 -19 -76 -23 -270 -32 -309 -14 -447 -3 -681 52 -44 11 -123 23 -175 29
-100 10 -276 54 -500 126 -234 75 -233 75 -511 78 -295 3 -284 1 -539 122
-161 77 -242 105 -294 104 -17 0 -76 -11 -131 -25z"/>
<path d="M9768 6250 c-55 -10 -195 -68 -294 -123 -108 -60 -359 -250 -450
-341 -81 -81 -169 -212 -181 -268 -3 -16 -11 -28 -17 -28 -6 0 -26 -14 -44
-31 -26 -23 -32 -36 -28 -54 11 -44 60 -80 138 -102 95 -28 142 -32 453 -43
298 -11 438 -23 545 -47 123 -29 307 -24 455 12 91 22 143 29 215 29 91 0 105
-4 330 -78 344 -113 434 -124 610 -75 87 24 285 112 317 142 21 18 31 20 130
14 104 -6 309 -37 519 -77 133 -25 230 -28 271 -6 70 36 81 94 32 172 -37 59
-60 80 -164 148 -217 143 -549 239 -952 276 -362 34 -557 64 -748 116 -153 42
-218 68 -497 200 -212 101 -351 149 -473 163 -99 12 -100 12 -167 1z m317
-119 c39 -11 178 -65 311 -119 132 -55 282 -114 333 -132 184 -63 628 -146
961 -180 212 -21 411 -57 515 -92 33 -11 110 -44 171 -73 90 -44 126 -68 192
-130 83 -78 107 -119 81 -136 -22 -14 -129 -10 -194 6 -76 20 -248 104 -345
170 -117 79 -202 122 -257 130 -54 7 -120 -3 -283 -42 -90 -21 -121 -24 -215
-20 -120 5 -160 17 -405 115 -213 85 -249 94 -390 94 -149 1 -216 -11 -372
-63 -84 -28 -177 -49 -335 -74 -120 -19 -270 -44 -333 -55 -142 -25 -530 -41
-530 -21 0 32 166 258 250 340 135 132 330 248 491 291 92 25 247 21 354 -9z"/>
<path d="M822 2290 c-7 -11 -8 -20 -3 -20 9 0 24 30 18 36 -1 2 -8 -6 -15 -16z"/>
</g>
</svg>
